<svg class="svg-icon" style="width: 1em; height: 1em;vertical-align: middle;fill: currentColor;overflow: hidden;" viewBox="0 0 1024 1024" version="1.1" xmlns="http://www.w3.org/2000/svg"><path d="M118.131519 52.631897v-5.804988a27.283447 27.283447 0 0 0 0 5.804988z"  /><path d="M291.313681 914.866213V627.519274c92.29932-26.122449 141.835223-238.778534 141.835223-439.824641a1231.238095 1231.238095 0 0 0-7.159486-133.12774 7.159486 7.159486 0 0 0 0-2.128495 22.832955 22.832955 0 0 0 0-4.063492C415.153439 2.321995 295.764172 0 271.963719 0S132.450491 2.321995 119.292517 46.24641v5.804988a7.159486 7.159486 0 0 0 0 2.128496A1236.269085 1236.269085 0 0 0 110.972033 187.694633c0 201.046107 49.342404 413.702192 141.641724 439.824641v287.540439c-41.02192 1.354497-122.291761 9.094482-133.32124 45.472411l-1.354497 8.513983v1.934997c3.482993 49.922902 128.870748 52.438398 154.799697 52.438397s154.799698-2.708995 154.799698-54.566893a25.54195 25.54195 0 0 0 0-6.191988c-10.642479-38.119426-94.427816-46.05291-136.223734-47.794407zM271.963719 38.699924a301.665911 301.665911 0 0 1 108.746787 15.866969 204.335601 204.335601 0 0 1-56.888888 12.964475H217.009826q-15.28647-1.934996-27.283447-4.643991l-5.804988-1.354497-4.837491-1.547997-4.643991-1.934996a89.396825 89.396825 0 0 1-11.222978-4.063492A301.665911 301.665911 0 0 1 271.963719 38.699924zM151.219955 251.549509C149.671958 232.199546 149.671958 209.75359 149.671958 187.694633c0-32.314437 1.160998-64.241875 3.676492-95.588813l2.902495 1.160998a61.726379 61.726379 0 0 0 6.385487 2.128496l11.416478 3.289493a166.796674 166.796674 0 0 0 19.349962 4.063492l9.868481 1.547997 9.674981 1.354498 12.770975 1.354497c20.70446 1.934996 38.699924 2.128496 46.05291 2.128496h36.571429c9.481481 0 19.349962-1.547997 30.57294-3.095994l13.544974-2.128496 11.996976-2.515495a154.799698 154.799698 0 0 0 26.702948-7.933485c2.515495 30.95994 3.676493 63.080877 3.676493 95.588814 0 22.058957 0 43.537415-1.547997 64.241874C381.871504 454.917611 323.821618 591.528345 271.963719 591.528345S161.475435 454.917611 151.219955 251.549509z m120.743764 733.170068a297.21542 297.21542 0 0 1-108.746788-15.866969 270.899471 270.899471 0 0 1 89.396826-15.28647v15.28647h38.699924v-15.28647a270.899471 270.899471 0 0 1 89.396825 15.28647 298.182918 298.182918 0 0 1-108.746787 15.866969z"  /><path d="M469.333333 82.624339v1.741496-1.741496zM510.161754 116.099773a195.821618 195.821618 0 0 0 33.088435 4.063492A195.434618 195.434618 0 0 1 510.161754 116.099773zM469.333333 76.045351z m0 5.998489V77.399849a25.73545 25.73545 0 0 0 0 3.869992v1.741497-0.967498z"  /><path d="M910.899471 934.990174c-13.931973-36.571429-98.104308-31.733938-139.513228-26.896448l-43.730914-284.057445c37.345427-16.834467 64.048375-67.531368 77.399849-148.027211a772.643991 772.643991 0 0 0 10.06198-128.870748 1177.4452 1177.4452 0 0 0-14.512472-179.37415 1175.123205 1175.123205 0 0 0-27.283446-130.418745v-1.741497c0-0.580499 0-2.321995-1.354498-4.063492C755.325775-12.577475 636.904006 3.095994 614.071051 6.772487s-137.578231 23.413454-143.963719 68.885865v8.707483a1215.758125 1215.758125 0 0 0 13.157974 132.353742 991.492063 991.492063 0 0 0 88.429327 295.280423c37.345427 72.562358 77.399849 112.61678 118.421769 117.84127l43.730915 284.057445c-40.247921 7.739985-119.776266 27.670446-125.000756 65.402872v10.44898c6.191988 27.476946 48.374906 34.249433 88.235828 34.249433a490.715042 490.715042 0 0 0 71.788359-5.804989 413.121693 413.121693 0 0 0 96.749811-25.928949c12.577475-5.417989 50.890401-22.058957 46.633409-51.0839a24.574452 24.574452 0 0 0-1.354497-6.191988z m-291.603931-890.098262a299.537415 299.537415 0 0 1 109.714286-0.967498 32.701436 32.701436 0 0 1-6.385487 3.676493l-3.869993 2.128496-7.933484 3.676493a363.58579 363.58579 0 0 1-86.687831 22.832955l-18.188964 2.515495c-11.803477 1.354497-22.445956 2.128496-32.314437 2.515495H534.349206l-11.609977-1.547997L517.32124 77.399849h-3.482994a292.958428 292.958428 0 0 1 105.457294-32.314437z m83.785337 546.442933c-27.476946 4.256992-64.241875-31.927438-97.717309-96.749811a910.802721 910.802721 0 0 1-76.045352-235.876039 9.094482 9.094482 0 0 1 0-3.289494c-2.902494-14.705971-5.417989-29.411943-7.739985-44.504913-5.03099-31.927438-8.513983-63.467876-10.835979-94.814815a195.434618 195.434618 0 0 0 33.088436 4.256992H581.563114c5.417989 0 10.642479 0 15.67347-1.160998 14.899471-1.354497 27.089947-3.095994 33.088435-3.869992a420.08768 420.08768 0 0 0 96.749811-25.92895 158.86319 158.86319 0 0 0 17.608466-8.707483c7.159486 30.185941 13.157974 61.53288 18.188964 93.653817q6.385488 41.21542 9.868481 81.269842a853.333333 853.333333 0 0 1-5.611489 214.010582C754.938776 541.798942 730.170824 587.077853 703.080877 591.334845z m59.791383 388.740741a298.763416 298.763416 0 0 1-109.907785 0 279.219955 279.219955 0 0 1 86.107332-29.024944l2.321995 15.47997 38.699924-5.804988-2.321995-15.286471a269.157974 269.157974 0 0 1 90.751323 1.741497 307.2774 307.2774 0 0 1-105.650794 32.894936z"  /></svg>